<svg xmlns="http://www.w3.org/2000/svg" viewBox="0 0 261.46 46.58"><defs><style>.cls-1{fill:#8b3830;}.cls-2{fill:#ff0c00;}</style></defs><g id="Layer_2" data-name="Layer 2"><g id="图层_1" data-name="图层 1"><path class="cls-1" d="M22.71,0h1.08a23.28,23.28,0,0,1,8.05,44.93,23.8,23.8,0,0,1-8.5,1.65A23.81,23.81,0,0,1,14,44.64,23.32,23.32,0,0,1,.82,29.4,24.08,24.08,0,0,1,0,23.86V22.78A24,24,0,0,1,1.16,16,23.31,23.31,0,0,1,22.71,0M11.33,7.31,38.54,36.12A19.94,19.94,0,0,0,11.33,7.31m-1,1.61c0,.18.27.46,0,.58s-.37-.36-.43-.58L9.52,9a1.08,1.08,0,0,0,.76,1,.55.55,0,0,0,.64-.74c0-.22-.29-.48-.12-.68.27,0,.36.29.42.48l.38,0c0-.47-.43-1-.94-.88a.58.58,0,0,0-.34.84m.58,1.75a.93.93,0,0,0,.86.65c0-.1,0-.29.05-.38-.23,0-.52-.18-.49-.47a.73.73,0,0,1,.84-.62c.2.06.24.28.29.45l.39,0a1,1,0,0,0-.48-.78,1.06,1.06,0,0,0-1.46,1.19M8.83,9.53a19.95,19.95,0,0,0,27.35,29Q22.5,24,8.83,9.53m2.94,2.14.33.35,1.41-1.34-.32-.34-1.42,1.33m.62.66.87.92.29-.27L13,12.41l.29-.28.45.47.29-.27-.45-.47.26-.24c.17.18.34.37.52.55l.29-.27-.85-.9-1.42,1.33m1.13,1.19.31.33a8,8,0,0,0,.95-1c-.2.47-.36,1-.53,1.43l.33.35L16,13.31,15.68,13a8.8,8.8,0,0,0-.95,1c.21-.46.36-1,.53-1.43l-.33-.35-1.41,1.33m1.68,1.7a.91.91,0,0,0,.86.65c0-.12,0-.25.05-.37-.23-.05-.5-.17-.5-.44a.74.74,0,0,1,.83-.66c.21.06.26.28.3.46l.39,0a1,1,0,0,0-.46-.78,1.06,1.06,0,0,0-1.47,1.18m.87,1,.87.92.28-.27-.54-.58L17,16l.44.47a3.83,3.83,0,0,1,.29-.28c-.15-.15-.3-.31-.44-.47l.25-.24.52.56.29-.28c-.28-.3-.56-.6-.85-.89l-1.41,1.33m2.51.66a1.26,1.26,0,0,0-.7.86.89.89,0,0,0,1.06,1,1.31,1.31,0,0,0,.88-.86.88.88,0,0,0-1.24-1M20.41,18,19,19.34l.32.34.47-.43a1.43,1.43,0,0,0,.56.42.65.65,0,0,0,.78-.8,3.71,3.71,0,0,0-.72-.87m-.19,2.64.87.92.29-.28-.54-.57.29-.28.45.47.29-.27-.45-.47.26-.24c.17.18.34.37.52.55l.29-.27-.85-.9-1.42,1.34m1.13,1.19c.1.11.2.22.31.32a8,8,0,0,0,.95-1c-.2.47-.36.95-.53,1.43l.32.35,1.42-1.33-.31-.33a8,8,0,0,0-1,1c.21-.46.36-.95.53-1.43l-.33-.35-1.41,1.34m2.77.11-1.41,1.33.31.33a11,11,0,0,0,.95-1c-.2.46-.36.95-.53,1.43l.33.34,1.41-1.33-.31-.33a9.79,9.79,0,0,0-.95,1c.21-.46.36-.95.53-1.42l-.33-.35m-.05,2.78.87.91.29-.27-.54-.57.29-.28c.14.16.29.31.44.47l.29-.27-.44-.47.25-.24.52.55.29-.27-.85-.9-1.41,1.34m2,.82c0,.21.3.51.07.67-.3,0-.37-.35-.43-.59l-.42,0a1.1,1.1,0,0,0,.76,1,.57.57,0,0,0,.66-.69c0-.24-.26-.47-.18-.71.28-.13.4.26.46.46l.38,0a.91.91,0,0,0-.81-.89.54.54,0,0,0-.49.77m1.14.73c-.18.36.15.7.17,1.06-.29.27-.5-.26-.53-.5l-.42,0a1.11,1.11,0,0,0,.64.95.59.59,0,0,0,.79-.38c.1-.34-.29-.66-.18-1,.26-.13.39.26.45.45l.38,0a1,1,0,0,0-.48-.8.59.59,0,0,0-.82.2M28.7,28c-.07.33.19.62.2.95-.3.25-.49-.27-.53-.51l-.42,0a1.08,1.08,0,0,0,.8,1,.56.56,0,0,0,.61-.75c0-.22-.31-.49-.11-.69.26,0,.34.29.41.49l.38,0a1,1,0,0,0-.62-.85.55.55,0,0,0-.72.38m.68,1.66a.78.78,0,0,0,1,1,8,8,0,0,0,1.13-1l-.31-.33c-.34.29-.63.63-1,.89s-.61-.16-.42-.41a12.44,12.44,0,0,1,1-.95l-.33-.34a8.76,8.76,0,0,0-1,1.07m1,1.71c.1.12.21.23.32.35l.46-.44a1.39,1.39,0,0,0,.57.42.64.64,0,0,0,.77-.8,3.87,3.87,0,0,0-.71-.86L30.38,31.4m1.22,1.3.33.35.46-.44a1.58,1.58,0,0,0,.52.41.64.64,0,0,0,.82-.79,3.66,3.66,0,0,0-.71-.86L31.6,32.7M34,33a1.33,1.33,0,0,0-.83.84.89.89,0,0,0,1,1.07A1.29,1.29,0,0,0,35,34,.89.89,0,0,0,34,33m.27,2.52.32.34a5,5,0,0,1,.55-.48c.18.29-.1.6-.16.9l.37.38c.08-.27.17-.54.25-.81a.69.69,0,0,0,.85-.61c-.06-.46-.5-.72-.77-1.06l-1.41,1.34m2.28.16.36.39L35.74,37.1l.33.34,1.13-1.06.36.38.28-.27-1-1.11Z"/><path class="cls-1" d="M53.81,2a3.85,3.85,0,0,1,2-.25,2,2,0,0,1,1.56.44A2.09,2.09,0,0,1,58,3.69c.4,2.88.8,5.77,1.18,8.66.21,1.48.36,3,.59,4.44a1,1,0,0,0,.12-.32c.35-2,.72-3.92,1.09-5.88.54-2.41,1.07-4.82,1.62-7.22A2,2,0,0,1,64,1.91a2.79,2.79,0,0,1,2.49.38,2.07,2.07,0,0,1,.71,1.18c.54,2.36,1.1,4.71,1.65,7.06.41,2.07.75,4.17,1.15,6.25a.24.24,0,0,0,.11-.2c.24-2,.49-4,.72-6,.33-2.32.66-4.65,1-7a2,2,0,0,1,1.42-1.72,3,3,0,0,1,2.33.28,1.9,1.9,0,0,1,.53,1.93q-1.35,7.77-2.71,15.54a1.72,1.72,0,0,1-1.56,1.47c-1,0-2.11,0-3.17,0a1.67,1.67,0,0,1-1.39-.68,2.18,2.18,0,0,1-.33-.89c-.48-2.4-1-4.79-1.46-7.19-.26-1.29-.49-2.59-.66-3.9,0-.11,0-.24-.14-.3-.37,2.17-.71,4.34-1.17,6.49q-.51,2.55-1,5.12a1.69,1.69,0,0,1-1.6,1.35h-3a1.76,1.76,0,0,1-1.49-.88,3.32,3.32,0,0,1-.27-1Q54.7,11.43,53.26,3.59A1.46,1.46,0,0,1,53.81,2Z"/><path class="cls-1" d="M81.46,1.87a3.14,3.14,0,0,1,2.29.28A2.17,2.17,0,0,1,84.58,4c0,2.87,0,5.73,0,8.59a8.68,8.68,0,0,0,.49,3.2,2.59,2.59,0,0,0,1.42,1.48,3.8,3.8,0,0,0,2.31.11,2.64,2.64,0,0,0,1.71-1.47,7.6,7.6,0,0,0,.55-3c0-3,0-5.92,0-8.88a2.26,2.26,0,0,1,.61-1.7,2.5,2.5,0,0,1,1.8-.51,2.17,2.17,0,0,1,1.58.64,2.46,2.46,0,0,1,.48,1.67c0,2.77,0,5.55,0,8.33a12,12,0,0,1-1.42,6.07,6,6,0,0,1-3.78,2.69,10.89,10.89,0,0,1-5,0,6.25,6.25,0,0,1-4-2.68,11.7,11.7,0,0,1-1.47-6c0-2.83,0-5.66,0-8.49a2.54,2.54,0,0,1,.41-1.54A1.82,1.82,0,0,1,81.46,1.87Z"/><path class="cls-1" d="M100.48,2.32a2.59,2.59,0,0,1,1.87-.54,2.21,2.21,0,0,1,1.65.66,2.51,2.51,0,0,1,.51,1.64V9.14h6.36c0-1.72,0-3.44,0-5.15a2.22,2.22,0,0,1,.7-1.75,2.87,2.87,0,0,1,2-.45,2,2,0,0,1,1.57.81,2.67,2.67,0,0,1,.37,1.49V19a2.17,2.17,0,0,1-.72,1.73,2.88,2.88,0,0,1-2,.42,2,2,0,0,1-1.51-.83,2.86,2.86,0,0,1-.34-1.52V13.18h-6.36v5.68a2.45,2.45,0,0,1-.52,1.63,2.3,2.3,0,0,1-1.64.63,2.6,2.6,0,0,1-1.85-.52,2.27,2.27,0,0,1-.64-1.74V4.09A2.29,2.29,0,0,1,100.48,2.32Z"/><path class="cls-1" d="M124,3.32a1.88,1.88,0,0,1,1.68-1.53c1,0,2,0,3,0a1.88,1.88,0,0,1,1.46.66,3.48,3.48,0,0,1,.52,1.24q2.42,7.82,4.82,15.62a1.36,1.36,0,0,1-.29,1.48,2.28,2.28,0,0,1-1.62.34,3.31,3.31,0,0,1-2.1-.36,2.51,2.51,0,0,1-.79-1.62l-.63-2.46h-5.71l-.81,3.17a1.74,1.74,0,0,1-1,1.16,4.57,4.57,0,0,1-1.48.11,2.37,2.37,0,0,1-1.63-.33,1.33,1.33,0,0,1-.32-1.45q2.48-8,5-16m3.12,2c-.58,2.62-1.25,5.21-1.9,7.81h4c-.7-2.56-1.29-5.14-1.92-7.72C127.29,5.29,127.15,5.14,127.13,5.29Z"/><path class="cls-1" d="M140.93,2a4.27,4.27,0,0,1,1.71-.17,5.13,5.13,0,0,1,1.75.15,1.93,1.93,0,0,1,1,.94c1.4,2.72,2.82,5.43,4.22,8.15.57,1.26,1.13,2.53,1.69,3.8.1.2.14.43.33.57-.22-2.37-.58-4.73-.62-7.11,0-1.46,0-2.93,0-4.39a2.15,2.15,0,0,1,.56-1.57,2.78,2.78,0,0,1,3.32,0A2.36,2.36,0,0,1,155.41,4c0,5.18,0,10.37,0,15.56A1.57,1.57,0,0,1,154,21.11c-.78,0-1.57,0-2.35,0a1.66,1.66,0,0,1-1.45-.92l-4.29-8.38c-.59-1.31-1.17-2.63-1.75-3.95-.07-.13-.11-.3-.26-.36.23,2.45.59,4.89.58,7.36v4.18a2.07,2.07,0,0,1-.74,1.68,2.92,2.92,0,0,1-2.07.35,1.82,1.82,0,0,1-1.28-.78,2.52,2.52,0,0,1-.33-1.34V3.38A1.6,1.6,0,0,1,140.93,2Z"/><path class="cls-1" d="M183.92,1.82h1.7v42.7h-1.7Z"/><path class="cls-1" d="M211.32,2a1.55,1.55,0,0,1,1.19.19,1.48,1.48,0,0,1,.07,2.35,1.48,1.48,0,0,1-1.94-.17A1.47,1.47,0,0,1,211.32,2Z"/><path class="cls-1" d="M200.84,6.91a4.64,4.64,0,0,1,2.75-1.26,7.34,7.34,0,0,1,3.6.41l-.49,1.81a5.54,5.54,0,0,0-3-.22,2.09,2.09,0,0,0-1.62,1.4,3.09,3.09,0,0,0,.33,2.68,2.51,2.51,0,0,0,1.88.86A7.3,7.3,0,0,0,207,12.3l.33,1.85a8.44,8.44,0,0,1-3.35.39,5.21,5.21,0,0,1-2.75-.91,3.71,3.71,0,0,1-1.41-2.15A4.85,4.85,0,0,1,200.84,6.91Z"/><path class="cls-1" d="M220,5.94a4.42,4.42,0,0,1,3-.16A3.16,3.16,0,0,1,225,7.36a6.59,6.59,0,0,1,.5,3.46h-5.56a1.69,1.69,0,0,0,1.14,1.55,5.4,5.4,0,0,0,3.65-.19c.1.63.21,1.27.31,1.91a8,8,0,0,1-2.56.47,5.28,5.28,0,0,1-3.35-.92A3.91,3.91,0,0,1,217.65,11a5.54,5.54,0,0,1,.49-3.21A3.89,3.89,0,0,1,220,5.94m.82,1.73a2,2,0,0,0-.92,1.59h3.43A2.06,2.06,0,0,0,222.93,8,1.74,1.74,0,0,0,220.83,7.67Z"/><path class="cls-1" d="M237.66,6.52a5.75,5.75,0,0,1,3.75-.92,6.62,6.62,0,0,1,2.15.46l-.49,1.81a5.49,5.49,0,0,0-3.08-.2,2.07,2.07,0,0,0-1.55,1.42,3.09,3.09,0,0,0,.38,2.68,2.53,2.53,0,0,0,1.89.82,7.09,7.09,0,0,0,2.67-.29c.1.62.22,1.23.33,1.85a7.84,7.84,0,0,1-2.3.41,6.51,6.51,0,0,1-3.23-.58,3.65,3.65,0,0,1-1.81-2,5.43,5.43,0,0,1-.22-3.09A3.93,3.93,0,0,1,237.66,6.52Z"/><path class="cls-1" d="M246.35,6.55A4.23,4.23,0,0,1,251,6.07a3.72,3.72,0,0,1,1.73,3,9.4,9.4,0,0,1,0,1.76h-5.57a1.7,1.7,0,0,0,1.12,1.54,5.43,5.43,0,0,0,3.68-.18c.1.63.21,1.27.31,1.91a7.8,7.8,0,0,1-4.33.29,3.91,3.91,0,0,1-2.38-1.6,4.83,4.83,0,0,1-.69-3,4.54,4.54,0,0,1,1.46-3.23m1.79,1.1a2,2,0,0,0-.95,1.61h3.43A2,2,0,0,0,250.18,8,1.74,1.74,0,0,0,248.14,7.65Z"/><path class="cls-1" d="M21,6.45A3.92,3.92,0,0,1,26,6.76c.6.63,1.18,1.3,1.77,1.94A1.7,1.7,0,0,0,29,8.86a12.69,12.69,0,0,0,1.63-.32A4,4,0,0,1,34.85,11a8.56,8.56,0,0,1,.4,2.46,1.33,1.33,0,0,0,.87,1.17,9.67,9.67,0,0,1,2.47,1.23A4.07,4.07,0,0,1,40,19.76a8.49,8.49,0,0,1-1.2,2.48,1.59,1.59,0,0,0-.36,1.39c.47,1.05,1.3,1.94,1.52,3.09a4.13,4.13,0,0,1-1.33,3.93,8.91,8.91,0,0,1-2.39,1.19L34.3,29.79c.62-.33,1.28-.56,1.92-.84a1.38,1.38,0,0,0,.93-1.31,2.36,2.36,0,0,0-.51-1.22,9.55,9.55,0,0,1-.92-1.8,4.32,4.32,0,0,1,.34-3.23c.34-.59.7-1.17,1-1.77A1.46,1.46,0,0,0,37,18.43a2.23,2.23,0,0,0-1.11-.7,7.89,7.89,0,0,1-2.11-1.06,3.75,3.75,0,0,1-1.32-2.33c-.08-.58-.09-1.18-.18-1.77a1.38,1.38,0,0,0-1.39-1.13c-.81.05-1.59.27-2.39.4a4.24,4.24,0,0,1-3.16-1.38L24,8.93a1.2,1.2,0,0,0-1.14-.25c-.53.13-.82.63-1.19,1A8.92,8.92,0,0,1,20,11.26a3.5,3.5,0,0,1-2.83.44c-1-1-1.92-2-2.87-3a3.63,3.63,0,0,1,1.31-.12c.66.14,1.34.22,2,.35a1.58,1.58,0,0,0,1.25-.26C19.64,7.93,20.21,7.08,21,6.45Z"/><path class="cls-1" d="M227.28,6.08a13.06,13.06,0,0,1,3.35-.45,3.89,3.89,0,0,1,2.22.53,2.72,2.72,0,0,1,1.08,1.53,8.66,8.66,0,0,1,.23,2.59v4.08h-2.24c0-1.43,0-2.86,0-4.29a5.47,5.47,0,0,0-.22-1.84,1,1,0,0,0-.75-.61,5.26,5.26,0,0,0-1.43,0v6.71h-2.24Z"/><path class="cls-1" d="M208.6,5.81h4.61v5.07a2.42,2.42,0,0,0,.24,1.3,1,1,0,0,0,.83.43,4.1,4.1,0,0,0,1.88-.42c.09.61.19,1.21.29,1.81a5.57,5.57,0,0,1-3.26.5,2.41,2.41,0,0,1-1.63-1,4.52,4.52,0,0,1-.59-2.41c0-1.14,0-2.28,0-3.41H208.6Z"/><path class="cls-1" d="M19.18,13.78a6,6,0,0,1,3.91.64,5.85,5.85,0,0,1,2.83,6.5Z"/><path class="cls-1" d="M11.27,13.91l1.89,2a3.88,3.88,0,0,1-1.54,1.3c-.57.25-1.16.47-1.74.73a1.37,1.37,0,0,0-.72,1.2,1.6,1.6,0,0,0,.34,1l.71,1.2a4.28,4.28,0,0,1,.15,3.91c-.37.69-.8,1.34-1.16,2a1.23,1.23,0,0,0,.52,1.53c.66.32,1.36.56,2,.87a3.75,3.75,0,0,1,1.88,2.09A13.86,13.86,0,0,1,14,34.31a1.41,1.41,0,0,0,1.56,1,15,15,0,0,0,2-.37,4.15,4.15,0,0,1,3.33,1.29c.44.49.89,1,1.33,1.47a1.26,1.26,0,0,0,1.83,0c.51-.52,1-1.08,1.48-1.6A4.15,4.15,0,0,1,28.43,35c.69.14,1.4.23,2.09.36a2.59,2.59,0,0,0,1,0c.64.68,1.28,1.35,1.92,2a3.66,3.66,0,0,1-2.83.59l-1.74-.28a1.5,1.5,0,0,0-1.22.32c-.65.65-1.2,1.39-1.89,2a3.91,3.91,0,0,1-5.31-.44c-.49-.54-1-1.07-1.47-1.63a1.47,1.47,0,0,0-1.17-.27,17.41,17.41,0,0,0-1.91.37,4,4,0,0,1-3.09-1,4.09,4.09,0,0,1-1.33-2.69c0-.48-.08-1-.14-1.46a1.32,1.32,0,0,0-.8-.95L9,31.28a4.18,4.18,0,0,1-2.3-2.55A3.94,3.94,0,0,1,7,25.65l1-1.76a1.16,1.16,0,0,0,.1-1c-.5-1.08-1.36-2-1.54-3.23a4.11,4.11,0,0,1,2.05-4.22c.67-.32,1.36-.57,2-.87A1.25,1.25,0,0,0,11.27,13.91Z"/><path class="cls-1" d="M18.88,17.27a.38.38,0,0,1,.45.56c-.17.28-.59.63-.9.36S18.55,17.41,18.88,17.27Z"/><path class="cls-1" d="M14.72,17.57l7.17,7.59A5.74,5.74,0,0,1,18.12,25a6,6,0,0,1-3.48-3.72A5.89,5.89,0,0,1,14.72,17.57Z"/><path class="cls-1" d="M20.06,19l.41-.39c.12.15.39.37.19.55S20.21,19.15,20.06,19Z"/><path class="cls-1" d="M200,19.59a11.56,11.56,0,0,1,3.2-.45,4.23,4.23,0,0,1,2.59.7,3.93,3.93,0,0,1,1.5,2.59,7.29,7.29,0,0,1-.08,2.83,3.65,3.65,0,0,1-1.57,2.4,3.71,3.71,0,0,1-3.4,0c0,1.07,0,2.14,0,3.21H200V19.59m2.25,1.53c0,1.57,0,3.14,0,4.7a2.23,2.23,0,0,0,2.05.12,2.46,2.46,0,0,0,.81-2,3.27,3.27,0,0,0-.77-2.52C203.76,20.9,202.94,21.07,202.25,21.12Z"/><path class="cls-1" d="M210,20a4.08,4.08,0,0,1,3.35-.85,3.23,3.23,0,0,1,2.34,1.44,6.16,6.16,0,0,1,.66,3.73h-5.56A1.68,1.68,0,0,0,212,25.88a5.4,5.4,0,0,0,3.65-.2c.1.64.21,1.28.31,1.92a8.21,8.21,0,0,1-2.54.47,5.31,5.31,0,0,1-3.4-.94,4,4,0,0,1-1.44-2.88A4.88,4.88,0,0,1,210,20m1.69,1.17a2.09,2.09,0,0,0-.9,1.59c1.14,0,2.29,0,3.43,0a2.16,2.16,0,0,0-.39-1.23A1.76,1.76,0,0,0,211.72,21.18Z"/><path class="cls-1" d="M218.19,19.59a13.55,13.55,0,0,1,3.17-.45,4,4,0,0,1,2.43.55,2.93,2.93,0,0,1,1.14,1.88,12.07,12.07,0,0,1,.13,2.48v3.82h-2.23c0-1.51,0-3,0-4.53a4.58,4.58,0,0,0-.23-1.65,1,1,0,0,0-.74-.56,5.2,5.2,0,0,0-1.42,0v6.71h-2.24Z"/><path class="cls-1" d="M227.28,19.59a13.38,13.38,0,0,1,3.15-.45,4.12,4.12,0,0,1,2.39.51A2.79,2.79,0,0,1,234,21.44a12.22,12.22,0,0,1,.17,2.7v3.73h-2.24c0-1.54,0-3.09,0-4.63a4.53,4.53,0,0,0-.24-1.55,1,1,0,0,0-.75-.57,5.55,5.55,0,0,0-1.41,0v6.71h-2.24Z"/><path class="cls-1" d="M237.29,20a4.27,4.27,0,0,1,4.19-.65A3.18,3.18,0,0,1,243.23,21a6.89,6.89,0,0,1,.43,3.31h-5.57a1.71,1.71,0,0,0,1.16,1.56,5.5,5.5,0,0,0,3.64-.21c.1.64.21,1.28.31,1.92a7.54,7.54,0,0,1-4.67.19,3.72,3.72,0,0,1-2.13-1.64,5.06,5.06,0,0,1-.58-3.1,4.46,4.46,0,0,1,1.47-3M239,21.16a2,2,0,0,0-.93,1.61h3.43a2.06,2.06,0,0,0-.45-1.29A1.77,1.77,0,0,0,239,21.16Z"/><path class="cls-1" d="M246.11,20.16a3.46,3.46,0,0,1,2.28-1,7.82,7.82,0,0,1,3.59.44c-.11.64-.23,1.28-.35,1.91a7.84,7.84,0,0,0-2.24-.51,2.53,2.53,0,0,0-1.41.25.49.49,0,0,0-.2.61,1.46,1.46,0,0,0,.76.57,24.78,24.78,0,0,1,2.63,1,2.35,2.35,0,0,1,1.12,1.44,2.56,2.56,0,0,1-.23,1.82,2.45,2.45,0,0,1-1.29,1,7.28,7.28,0,0,1-3,.33,8.28,8.28,0,0,1-2.5-.68c.11-.63.23-1.26.34-1.89a8,8,0,0,0,2.75.69,4.14,4.14,0,0,0,1.48-.17.49.49,0,0,0,.26-.62,1,1,0,0,0-.56-.52,25.27,25.27,0,0,1-2.83-1.06,2.3,2.3,0,0,1-1.16-1.43A2.48,2.48,0,0,1,246.11,20.16Z"/><path class="cls-1" d="M255.34,20a3.87,3.87,0,0,1,2.43-.9,7.88,7.88,0,0,1,3.3.47c-.11.64-.23,1.28-.35,1.91a7.33,7.33,0,0,0-2.35-.51,1.89,1.89,0,0,0-1.41.36.47.47,0,0,0,0,.67,3.24,3.24,0,0,0,1.13.6,8.46,8.46,0,0,1,2.48,1.08,2.21,2.21,0,0,1,.86,1.64v.3a2.4,2.4,0,0,1-.52,1.38,3.34,3.34,0,0,1-1.85.93,9.09,9.09,0,0,1-2.33.1,8.55,8.55,0,0,1-2.37-.67c.11-.63.23-1.26.35-1.89a14.59,14.59,0,0,0,1.45.5,5.62,5.62,0,0,0,2.38.13c.25,0,.57-.12.66-.39a.71.71,0,0,0-.46-.8c-.75-.36-1.59-.52-2.36-.84a2.86,2.86,0,0,1-1.65-1.42A2.5,2.5,0,0,1,255.34,20Z"/><path class="cls-1" d="M28.41,23.56a2.66,2.66,0,0,1,4.44,1.68,2.73,2.73,0,0,1-.77,2.2Z"/><path class="cls-1" d="M59.83,24.91a9.25,9.25,0,0,1,6,1.05,2.18,2.18,0,0,1,1.14,1.19,1.63,1.63,0,0,1-.28,1.38,2.68,2.68,0,0,1-1.24,1,1.91,1.91,0,0,1-1.48-.13,5.33,5.33,0,0,0-2.87-.66,2.53,2.53,0,0,0-1.65.59,1.36,1.36,0,0,0,0,2,8.1,8.1,0,0,0,1.65.86l3.41,1.37a6.08,6.08,0,0,1,2.93,2.36A6,6,0,0,1,68,40.28a5.39,5.39,0,0,1-2.35,3.23,8.69,8.69,0,0,1-5.09,1.35,10.9,10.9,0,0,1-5.34-1.52,2.07,2.07,0,0,1-.94-1.43,2,2,0,0,1,.57-1.42,2.28,2.28,0,0,1,1.61-.9,2.8,2.8,0,0,1,1.6.52,6.29,6.29,0,0,0,3.48.73,2.31,2.31,0,0,0,1.57-.7,1.49,1.49,0,0,0,0-1.85,4.25,4.25,0,0,0-1.53-.94l-3.61-1.52a6.64,6.64,0,0,1-3-2.51,5.43,5.43,0,0,1,1.62-7.08A7.15,7.15,0,0,1,59.83,24.91Z"/><path class="cls-1" d="M132.53,24.92a10.31,10.31,0,0,1,5.28.55A8,8,0,0,1,142,29.55a13,13,0,0,1,1,6.07A10.88,10.88,0,0,1,141,41.7a7.66,7.66,0,0,1-3.77,2.71,10.37,10.37,0,0,1-4.92.28,7.88,7.88,0,0,1-4.6-2.59,10.11,10.11,0,0,1-2.32-5.9,14.42,14.42,0,0,1,.6-5.8,8.41,8.41,0,0,1,2.56-3.74,8,8,0,0,1,4-1.74m.59,4a3.27,3.27,0,0,0-1.22.65,5.79,5.79,0,0,0-1.76,3.95,9.94,9.94,0,0,0,.68,5.09,3.89,3.89,0,0,0,2.11,2.07,3.65,3.65,0,0,0,3.09-.3,4.54,4.54,0,0,0,1.55-1.84,9.72,9.72,0,0,0,.68-4.8,6,6,0,0,0-1.81-4.17A3.75,3.75,0,0,0,133.12,28.9Z"/><path class="cls-1" d="M72.79,25.21a3,3,0,0,1,2.24.41,2.26,2.26,0,0,1,.71,1.81V36a8.75,8.75,0,0,0,.45,3.05,2.61,2.61,0,0,0,1.4,1.55,3.8,3.8,0,0,0,2.38.13,2.71,2.71,0,0,0,1.74-1.55,8.66,8.66,0,0,0,.52-3.27V27.53a2.53,2.53,0,0,1,.46-1.71,2.15,2.15,0,0,1,1.62-.66,2.45,2.45,0,0,1,1.82.55,2.37,2.37,0,0,1,.57,1.72v8.39a12.44,12.44,0,0,1-1.31,5.88A6,6,0,0,1,82,44.43a10.83,10.83,0,0,1-5.06.25,6.37,6.37,0,0,1-4.24-2.63,11.43,11.43,0,0,1-1.55-6.14c0-2.76,0-5.52,0-8.28a2.77,2.77,0,0,1,.42-1.71A1.92,1.92,0,0,1,72.79,25.21Z"/><path class="cls-1" d="M91,26.06a1.62,1.62,0,0,1,1.45-.9h4.7A10.58,10.58,0,0,1,103,26.45a5.21,5.21,0,0,1,2.29,3.67,7.63,7.63,0,0,1-.44,4.12,6.27,6.27,0,0,1-3.9,3.38,17.7,17.7,0,0,1-5.48.46c0,1.41,0,2.81,0,4.21A2.28,2.28,0,0,1,94.87,44a2.5,2.5,0,0,1-1.79.52,2.28,2.28,0,0,1-1.68-.62,2.45,2.45,0,0,1-.55-1.69c0-4.95,0-9.9,0-14.86A2.86,2.86,0,0,1,91,26.06m4.49,2.79v5.57c.78,0,1.57,0,2.36,0a3.27,3.27,0,0,0,2.37-.92,3.39,3.39,0,0,0,.59-2.68,2,2,0,0,0-1.16-1.57C98.36,28.66,96.89,28.9,95.51,28.85Z"/><path class="cls-1" d="M108.72,26a1.59,1.59,0,0,1,1.41-.84h5.4a10.34,10.34,0,0,1,4.59,1,4.93,4.93,0,0,1,2,1.77,7,7,0,0,1,.84,4.83,6.06,6.06,0,0,1-2.37,3.91,7.29,7.29,0,0,1-3,1.26,25,25,0,0,1-4.42.19v4.21a2.28,2.28,0,0,1-.64,1.7,2.54,2.54,0,0,1-1.79.51,2.28,2.28,0,0,1-1.68-.62,2.43,2.43,0,0,1-.54-1.68V27.34a2.67,2.67,0,0,1,.2-1.34m4.45,2.85v5.57c.79,0,1.57,0,2.36,0a3.23,3.23,0,0,0,2.36-.92,3.32,3.32,0,0,0,.58-2.78,2,2,0,0,0-1.24-1.51A11.78,11.78,0,0,0,113.17,28.85Z"/><path class="cls-1" d="M148,25.17h4.87a10.84,10.84,0,0,1,5.88,1.17A5,5,0,0,1,161,29.88a7.41,7.41,0,0,1-.65,4.66,5.55,5.55,0,0,1-2.56,2.3l3.17,5.61a1.77,1.77,0,0,1,.31,1.4,1.23,1.23,0,0,1-1.14.64c-.66,0-1.33,0-2,0a1.84,1.84,0,0,1-1.82-1.09l-3-5.71h-2.22v4.5a2.32,2.32,0,0,1-.64,1.78,2.49,2.49,0,0,1-1.79.52,2.3,2.3,0,0,1-1.68-.62,2.34,2.34,0,0,1-.54-1.69c0-5.15,0-10.3,0-15.45A1.59,1.59,0,0,1,148,25.17m3.11,3.68V34c1,0,2,0,3-.06a2.7,2.7,0,0,0,2.2-1.33,3.24,3.24,0,0,0,.08-2.5A2.23,2.23,0,0,0,154.54,29,23.68,23.68,0,0,0,151.07,28.85Z"/><path class="cls-1" d="M163.34,26.05a1.64,1.64,0,0,1,1.55-.88h11.48a1.9,1.9,0,0,1,1.51.58,2.3,2.3,0,0,1,.39,1.6,1.8,1.8,0,0,1-.54,1.26,2,2,0,0,1-1.37.42H173V42.3a2.25,2.25,0,0,1-.7,1.74,2.87,2.87,0,0,1-2,.44,2,2,0,0,1-1.51-.77,2.6,2.6,0,0,1-.4-1.51V29c-1.16,0-2.32,0-3.48,0a1.64,1.64,0,0,1-1.56-.9A2.79,2.79,0,0,1,163.34,26.05Z"/><path class="cls-1" d="M20.46,28.23a2,2,0,0,1,2.42,1.7,2,2,0,0,1-4,.59A2,2,0,0,1,20.46,28.23Z"/><path class="cls-1" d="M246.92,30.68l2.24-.36v2.51h3.59q0,.93,0,1.86h-3.59V38a2.18,2.18,0,0,0,.26,1.26.94.94,0,0,0,.66.35,4.66,4.66,0,0,0,2.52-.44c.1.65.2,1.3.31,1.94a7.74,7.74,0,0,1-3.13.46,3,3,0,0,1-2.09-.68,3.52,3.52,0,0,1-.77-2.38c0-1.27,0-2.55,0-3.82H245V32.83h1.95Z"/><path class="cls-1" d="M31.85,30.67c.12.15.39.37.17.56s-.44,0-.58-.17Z"/><path class="cls-1" d="M33.07,32c.13.15.4.38.17.57s-.43,0-.58-.18Z"/><path class="cls-1" d="M209.1,33.09a12.21,12.21,0,0,1,3.18-.45,4.29,4.29,0,0,1,2.63.73A4,4,0,0,1,216.4,36a7.34,7.34,0,0,1-.15,2.95,3.48,3.48,0,0,1-1.63,2.25,3.76,3.76,0,0,1-3.29-.06c0,1.07,0,2.14,0,3.21H209.1V33.09m2.24,1.54c0,1.57,0,3.13,0,4.7a2.41,2.41,0,0,0,2,.18,2.12,2.12,0,0,0,.89-1.81,3.46,3.46,0,0,0-.73-2.77A2.67,2.67,0,0,0,211.34,34.63Z"/><path class="cls-1" d="M229.79,32.7a4.19,4.19,0,0,1,3,.46,4,4,0,0,1,1.68,2.2,5.89,5.89,0,0,1-.06,3.62,3.9,3.9,0,0,1-1.93,2.25,4.06,4.06,0,0,1-4.66-.82,4.67,4.67,0,0,1-1.15-3,5,5,0,0,1,.88-3.28,3.78,3.78,0,0,1,2.24-1.43m.28,2a1.54,1.54,0,0,0-.76.71,3.77,3.77,0,0,0-.37,1.93A3.37,3.37,0,0,0,229.4,39a1.58,1.58,0,0,0,2.5,0,3.5,3.5,0,0,0,.52-2.17,3.23,3.23,0,0,0-.54-1.84A1.65,1.65,0,0,0,230.07,34.67Z"/><path class="cls-1" d="M218.19,33.1a11.74,11.74,0,0,1,3.17-.46,4.44,4.44,0,0,1,2.45.6,3.75,3.75,0,0,1,1.6,2.37,7.17,7.17,0,0,1,0,3,3.79,3.79,0,0,1-1.54,2.53,3.68,3.68,0,0,1-3.46,0v3.21h-2.24V33.1m2.24,1.53v4.7a2.75,2.75,0,0,0,1.62.29,1.3,1.3,0,0,0,.95-.78,4.5,4.5,0,0,0,.28-2.12,2.66,2.66,0,0,0-.85-1.88A2.92,2.92,0,0,0,220.43,34.63Z"/><path class="cls-1" d="M236.84,33.39a11.1,11.1,0,0,1,6.74-.37c-.13.7-.27,1.39-.4,2.08A8.66,8.66,0,0,0,239.1,35v6.35h-2.26Z"/><path class="cls-1" d="M199.93,32.83h2.24c0,1.59,0,3.19,0,4.78a2.9,2.9,0,0,0,.43,1.68c.51.51,1.31.32,1.95.25V32.83h2.27v8.26a12,12,0,0,1-4,.46,2.93,2.93,0,0,1-2.17-1.07,4.52,4.52,0,0,1-.69-2.57Z"/><path class="cls-1" d="M34,33.49c.28-.27.79,0,.62.41s-.57.7-.92.45S33.7,33.65,34,33.49Z"/><path class="cls-1" d="M35.31,35.11l.39-.36c.11.15.39.36.2.55S35.46,35.26,35.31,35.11Z"/><path class="cls-2" d="M193.28,3a6.5,6.5,0,0,1,4.35.64L197,5.34a4.73,4.73,0,0,0-1.94-.6,2.88,2.88,0,0,0-1.61.25,1.15,1.15,0,0,0-.23,1.73,4.61,4.61,0,0,0,1.76.94,8.13,8.13,0,0,1,1.88.9,3.15,3.15,0,0,1,1.27,2.1,3.52,3.52,0,0,1-.65,2.74,3.63,3.63,0,0,1-2.32,1.12,9.15,9.15,0,0,1-2.56,0,6.74,6.74,0,0,1-2.08-.75c.21-.61.44-1.22.65-1.83a5.58,5.58,0,0,0,2.29.78,3.16,3.16,0,0,0,1.92-.3,1.34,1.34,0,0,0,.51-1.39,1.7,1.7,0,0,0-.78-.91c-.94-.59-2.07-.78-3-1.37a2.85,2.85,0,0,1-1.38-1.95,3.58,3.58,0,0,1,.56-2.57A3.36,3.36,0,0,1,193.28,3Z"/><path class="cls-2" d="M169.82,8.54a2.76,2.76,0,0,1,2.46.54,3,3,0,0,1,.68,3.69,2.72,2.72,0,0,1-4.29.71,3,3,0,0,1-.57-3.5A2.72,2.72,0,0,1,169.82,8.54Z"/><path class="cls-2" d="M193.47,16.43a4.15,4.15,0,0,1,2.85.43,3.85,3.85,0,0,1,1.52,1.94,9.52,9.52,0,0,1,.53,3.35,8.58,8.58,0,0,1-.79,4.06A3.5,3.5,0,0,1,195.47,28a4.35,4.35,0,0,1-2.6-.1A3.5,3.5,0,0,1,191,26.1a8.34,8.34,0,0,1-.72-3.45,9,9,0,0,1,.72-4.24,3.57,3.57,0,0,1,2.49-2m.37,1.94a1.41,1.41,0,0,0-.84.75,4.93,4.93,0,0,0-.43,1.92,16.69,16.69,0,0,0,.07,3.08,2.59,2.59,0,0,0,.89,1.83,1.49,1.49,0,0,0,1.85-.26,3.21,3.21,0,0,0,.63-1.75,17.22,17.22,0,0,0,0-3.29,3.31,3.31,0,0,0-.67-1.93A1.49,1.49,0,0,0,193.84,18.37Z"/><path class="cls-2" d="M193.27,30a6.6,6.6,0,0,1,4.36.63L197,32.36a4.6,4.6,0,0,0-1.94-.61,2.78,2.78,0,0,0-1.61.27,1.13,1.13,0,0,0-.22,1.72,4.1,4.1,0,0,0,1.63.88,7.2,7.2,0,0,1,2.28,1.19,3.07,3.07,0,0,1,1,1.88,3.46,3.46,0,0,1-.75,2.84,4.12,4.12,0,0,1-2.83,1.07,7.17,7.17,0,0,1-3-.38,7.05,7.05,0,0,1-1-.45c.21-.61.44-1.22.65-1.83a5.37,5.37,0,0,0,2.29.77,3.14,3.14,0,0,0,1.91-.28,1.35,1.35,0,0,0,.54-1.33,1.51,1.51,0,0,0-.66-.89c-1-.67-2.2-.85-3.2-1.49a2.86,2.86,0,0,1-1.33-1.93,3.57,3.57,0,0,1,.55-2.55A3.33,3.33,0,0,1,193.27,30Z"/></g></g></svg>